<?xml version="1.0" standalone="no"?>
<!DOCTYPE svg PUBLIC "-//W3C//DTD SVG 20010904//EN"
 "http://www.w3.org/TR/2001/REC-SVG-20010904/DTD/svg10.dtd">
<svg version="1.0" xmlns="http://www.w3.org/2000/svg"
 width="563.000000pt" height="563.000000pt" viewBox="0 0 563.000000 563.000000"
 preserveAspectRatio="xMidYMid meet">
<metadata>
Created by potrace 1.11, written by Peter Selinger 2001-2013
</metadata>
<g transform="translate(0.000000,563.000000) scale(0.100000,-0.100000)"
fill="#000000" stroke="none">
<path d="M325 2821 c0 -1540 3 -2803 7 -2807 4 -4 199 -8 433 -8 l425 -1 0
782 0 781 -245 245 -245 244 245 246 245 245 0 1110 0 1110 -426 426 c-234
234 -429 426 -432 426 -4 0 -7 -1260 -7 -2799z"/>
<path d="M2753 3852 c-158 -159 -294 -296 -302 -305 -12 -15 78 -108 817 -847
456 -456 832 -830 834 -830 2 0 3 274 3 610 l0 610 -525 525 c-289 289 -528
525 -531 525 -4 0 -137 -130 -296 -288z"/>
<path d="M1861 2986 l-424 -424 -1 -484 c-1 -265 2 -492 5 -503 4 -11 131
-146 284 -300 740 -749 1258 -1266 1262 -1261 3 3 5 276 5 607 l0 602 -418
418 -417 417 359 360 c198 197 365 366 372 374 11 14 -31 59 -288 317 -166
165 -304 301 -308 301 -4 0 -198 -191 -431 -424z"/>
<path d="M4350 2230 l0 -612 264 -264 c145 -145 268 -264 272 -264 4 0 28 17
53 37 247 202 372 465 366 769 -3 127 -8 160 -40 269 -48 157 -137 299 -264
416 -161 150 -352 233 -583 254 l-68 6 0 -611z"/>
<path d="M3239 2470 c-5 -84 -1 -2452 4 -2457 8 -7 856 -11 858 -3 1 3 2 366
3 807 l1 803 -432 432 c-238 238 -433 426 -434 418z"/>
<path d="M1091 2264 l-204 -206 203 -203 c112 -113 206 -202 209 -200 6 7 7
815 1 815 -3 -1 -97 -93 -209 -206z"/>
<path d="M4350 1133 c0 -165 3 -212 13 -208 6 2 44 6 82 9 39 3 80 8 92 10 48
10 144 39 148 45 2 4 -72 86 -165 182 l-170 174 0 -212z"/>
</g>
</svg>
